<?xml version="1.0" encoding="utf-8"?>
<!-- Generator: Adobe Illustrator 18.1.1, SVG Export Plug-In . SVG Version: 6.00 Build 0)  -->
<svg version="1.1" id="Layer_1" xmlns="http://www.w3.org/2000/svg" xmlns:xlink="http://www.w3.org/1999/xlink" x="0px" y="0px"
	 viewBox="-384.8 1015.5 1390.9 179.1" enable-background="new -384.8 1015.5 1390.9 179.1" xml:space="preserve">
<g>
	<path d="M-379.7,1192.6c-1.3,0-2.5-0.5-3.5-1.5c-1-1-1.6-2.2-1.6-3.6v-125.7c0-1.4,0.5-2.6,1.6-3.6c1-1,2.2-1.5,3.5-1.5h25.8
		c2.3,0,4,0.5,5,1.6c1,1,1.7,1.9,2.1,2.5l40,64.2v-63.2c0-1.4,0.5-2.6,1.6-3.6c1-1,2.3-1.5,3.7-1.5h29.1c1.4,0,2.6,0.5,3.6,1.5
		c1,1,1.5,2.2,1.5,3.6v125.7c0,1.4-0.5,2.6-1.5,3.6c-1,1-2.2,1.5-3.6,1.5H-298c-2.3,0-4-0.5-5.1-1.6c-1.1-1.1-1.8-1.9-2.2-2.4
		l-40-60.7v59.7c0,1.4-0.5,2.6-1.5,3.6c-1,1-2.2,1.5-3.6,1.5H-379.7z"/>
	<path d="M-184.6,1194.6c-12.4,0-23.2-1.9-32.3-5.8c-9.1-3.9-16.3-9.7-21.5-17.6c-5.2-7.8-8.1-17.6-8.4-29.2
		c-0.1-5.4-0.2-11-0.2-16.8c0-5.8,0.1-11.5,0.2-17.2c0.4-11.5,3.2-21.2,8.4-29.1c5.2-7.9,12.4-13.9,21.6-17.9
		c9.2-4.1,19.9-6.1,32.2-6.1c12.2,0,22.8,2,32,6.1c9.2,4.1,16.4,10.1,21.7,17.9c5.3,7.9,8.1,17.6,8.3,29.1
		c0.3,5.7,0.4,11.4,0.4,17.2c0,5.8-0.1,11.3-0.4,16.8c-0.4,11.6-3.2,21.4-8.4,29.2c-5.2,7.8-12.4,13.7-21.5,17.6
		C-161.6,1192.6-172.3,1194.6-184.6,1194.6z M-184.6,1161.6c5.4,0,9.9-1.6,13.4-4.9c3.5-3.3,5.3-8.6,5.4-15.8
		c0.3-5.6,0.4-11,0.4-16.2c0-5.2-0.1-10.6-0.4-16c-0.1-4.8-1-8.7-2.6-11.8c-1.6-3.1-3.8-5.4-6.6-6.8c-2.8-1.4-6-2.1-9.6-2.1
		c-3.6,0-6.9,0.7-9.7,2.1c-2.8,1.4-5.1,3.7-6.7,6.8c-1.6,3.1-2.5,7.1-2.6,11.8c-0.1,5.4-0.2,10.8-0.2,16c0,5.2,0.1,10.6,0.2,16.2
		c0.3,7.2,2.1,12.5,5.5,15.8C-194.6,1159.9-190.1,1161.6-184.6,1161.6z"/>
	<path d="M-97.1,1192.6c-1.3,0-2.5-0.5-3.5-1.5c-1-1-1.6-2.2-1.6-3.6v-125.7c0-1.4,0.5-2.6,1.6-3.6c1-1,2.2-1.5,3.5-1.5h55.3
		c17.6,0,31.4,4,41.4,12c10,8,15,19.2,15,33.6c0,9.1-2.1,16.8-6.2,23.1c-4.1,6.3-9.6,11.3-16.3,14.9l25.2,45.8
		c0.4,0.8,0.6,1.5,0.6,2.1c0,1.2-0.4,2.2-1.2,3c-0.8,0.8-1.7,1.3-2.9,1.3h-32.8c-2.5,0-4.3-0.6-5.6-1.8c-1.3-1.2-2.1-2.4-2.5-3.4
		l-19.4-40h-14v40.2c0,1.4-0.5,2.6-1.5,3.6c-1,1-2.2,1.5-3.6,1.5H-97.1z M-60.4,1115.4H-42c4.5,0,7.9-1.3,10.1-3.8
		c2.2-2.5,3.3-5.7,3.3-9.4c0-3.9-1.1-7.2-3.2-9.9c-2.1-2.7-5.5-4.1-10.2-4.1h-18.4V1115.4z"/>
	<path d="M40.1,1192.6c-1.3,0-2.5-0.5-3.5-1.5c-1-1-1.6-2.2-1.6-3.6v-125.7c0-1.4,0.5-2.6,1.6-3.6c1-1,2.2-1.5,3.5-1.5h53.2
		c12.5,0,23.4,2,32.6,6.1c9.2,4.1,16.4,10.1,21.7,17.9c5.3,7.9,8.1,17.6,8.5,29.1c0.3,5.6,0.4,10.5,0.4,14.7s-0.1,9.1-0.4,14.5
		c-0.5,12.2-3.3,22.2-8.2,30.1c-5,7.9-12,13.7-21,17.6c-9.1,3.8-19.9,5.7-32.6,5.7H40.1z M76.8,1159.6h16.5c4.3,0,7.9-0.7,10.9-2.1
		c3-1.4,5.3-3.7,7-6.7c1.7-3,2.6-7,2.7-11.7c0.1-3.7,0.2-7.1,0.3-10.1c0.1-3,0.1-5.9,0-8.9c-0.1-3-0.2-6.3-0.3-9.9
		c-0.3-7.1-2.3-12.3-6.1-15.5c-3.8-3.2-9-4.9-15.4-4.9H76.8V1159.6z"/>
	<path d="M181.3,1192.6c-1.3,0-2.5-0.5-3.5-1.5c-1-1-1.6-2.2-1.6-3.6v-125.7c0-1.4,0.5-2.6,1.6-3.6c1-1,2.2-1.5,3.5-1.5h95.1
		c1.4,0,2.6,0.5,3.7,1.5c1,1,1.6,2.2,1.6,3.6v22.9c0,1.3-0.5,2.5-1.6,3.5c-1,1-2.3,1.6-3.7,1.6h-59.9v19.2h55.7
		c1.4,0,2.6,0.5,3.7,1.5c1,1,1.6,2.2,1.6,3.6v21c0,1.4-0.5,2.6-1.6,3.6c-1,1-2.3,1.5-3.7,1.5h-55.7v19.6h61.5c1.4,0,2.7,0.5,3.7,1.6
		c1,1,1.6,2.3,1.6,3.7v22.7c0,1.4-0.5,2.6-1.6,3.6c-1,1-2.3,1.5-3.7,1.5H181.3z"/>
	<path d="M308,1192.6c-1.3,0-2.5-0.5-3.5-1.5c-1-1-1.6-2.2-1.6-3.6v-125.7c0-1.4,0.5-2.6,1.6-3.6c1-1,2.2-1.5,3.5-1.5h55.3
		c17.6,0,31.4,4,41.4,12c10,8,15,19.2,15,33.6c0,9.1-2.1,16.8-6.2,23.1c-4.1,6.3-9.6,11.3-16.3,14.9l25.2,45.8
		c0.4,0.8,0.6,1.5,0.6,2.1c0,1.2-0.4,2.2-1.2,3c-0.8,0.8-1.7,1.3-2.9,1.3h-32.8c-2.5,0-4.3-0.6-5.6-1.8c-1.3-1.2-2.1-2.4-2.5-3.4
		l-19.4-40h-14v40.2c0,1.4-0.5,2.6-1.5,3.6c-1,1-2.2,1.5-3.6,1.5H308z M344.7,1115.4h18.4c4.5,0,7.9-1.3,10.1-3.8
		c2.2-2.5,3.3-5.7,3.3-9.4c0-3.9-1.1-7.2-3.2-9.9c-2.1-2.7-5.5-4.1-10.2-4.1h-18.4V1115.4z"/>
	<path d="M483.9,1192.6c-1.3,0-2.5-0.5-3.5-1.5s-1.6-2.2-1.6-3.6v-125.7c0-1.4,0.5-2.6,1.6-3.6s2.2-1.5,3.5-1.5h55.3
		c17.6,0,31.4,4,41.4,12c10,8,15,19.2,15,33.6c0,9.1-2.1,16.8-6.2,23.1c-4.1,6.3-9.6,11.3-16.3,14.9l25.2,45.8
		c0.4,0.8,0.6,1.5,0.6,2.1c0,1.2-0.4,2.2-1.2,3c-0.8,0.8-1.7,1.3-2.9,1.3h-32.8c-2.5,0-4.3-0.6-5.6-1.8c-1.3-1.2-2.1-2.4-2.5-3.4
		l-19.4-40h-14v40.2c0,1.4-0.5,2.6-1.5,3.6c-1,1-2.2,1.5-3.6,1.5H483.9z M520.6,1115.4H539c4.5,0,7.9-1.3,10.1-3.8
		c2.2-2.5,3.3-5.7,3.3-9.4c0-3.9-1.1-7.2-3.2-9.9c-2.1-2.7-5.5-4.1-10.2-4.1h-18.4V1115.4z"/>
	<path d="M621.1,1192.6c-1.3,0-2.5-0.5-3.5-1.5c-1-1-1.6-2.2-1.6-3.6v-125.7c0-1.4,0.5-2.6,1.6-3.6c1-1,2.2-1.5,3.5-1.5h95.1
		c1.4,0,2.6,0.5,3.7,1.5c1,1,1.6,2.2,1.6,3.6v22.9c0,1.3-0.5,2.5-1.6,3.5c-1,1-2.3,1.6-3.7,1.6h-59.9v19.2h55.7
		c1.4,0,2.6,0.5,3.7,1.5c1,1,1.6,2.2,1.6,3.6v21c0,1.4-0.5,2.6-1.6,3.6c-1,1-2.3,1.5-3.7,1.5h-55.7v19.6h61.5c1.4,0,2.6,0.5,3.7,1.6
		c1,1,1.6,2.3,1.6,3.7v22.7c0,1.4-0.5,2.6-1.6,3.6c-1,1-2.3,1.5-3.7,1.5H621.1z M652.3,1047.1c-2.1,0-3.1-1-3.1-3.1
		c0-1,0.3-1.9,1-2.5l18.2-22.3c1.3-1.6,2.4-2.6,3.4-3c1-0.5,2.2-0.7,3.8-0.7h32.6c2.5,0,3.7,1.3,3.7,3.9c0,0.9-0.3,1.7-1,2.3
		l-27.2,22.3c-1,0.9-2.1,1.6-3.2,2.2c-1.1,0.6-2.6,0.9-4.6,0.9H652.3z"/>
	<path d="M747.8,1192.6c-1.3,0-2.5-0.5-3.5-1.5c-1-1-1.6-2.2-1.6-3.6v-125.7c0-1.4,0.5-2.6,1.6-3.6c1-1,2.2-1.5,3.5-1.5h30.8
		c1.4,0,2.6,0.5,3.6,1.5s1.5,2.2,1.5,3.6v40.7l28.9-41.7c0.6-0.9,1.6-1.8,2.7-2.7c1.2-0.9,2.8-1.4,4.9-1.4h35.5c1.2,0,2.2,0.4,3,1.3
		c0.8,0.8,1.3,1.8,1.3,3c0,0.8-0.3,1.5-0.8,2.1l-40.7,58.6l44.2,64.4c0.5,0.5,0.8,1.2,0.8,2.1c0,1.2-0.4,2.2-1.3,3
		c-0.8,0.8-1.8,1.3-3,1.3h-36.5c-2.6,0-4.5-0.6-5.7-1.7c-1.2-1.2-2-2-2.2-2.5l-31-45v44.2c0,1.4-0.5,2.6-1.5,3.6s-2.2,1.5-3.6,1.5
		H747.8z"/>
	<path d="M869.4,1192.6c-1.2,0-2.1-0.4-2.9-1.3c-0.8-0.8-1.2-1.8-1.2-3c0-0.5,0.1-1,0.2-1.4l44.2-124.2c0.5-1.4,1.4-2.8,2.7-4.1
		c1.3-1.3,3.1-1.9,5.4-1.9h35.5c2.5,0,4.3,0.6,5.6,1.9c1.3,1.3,2.1,2.7,2.5,4.1L1006,1187c0.1,0.4,0.2,0.8,0.2,1.4
		c0,1.2-0.4,2.2-1.3,3c-0.8,0.8-1.8,1.3-3,1.3H972c-2.2,0-3.8-0.5-4.8-1.6c-1-1-1.7-2-2.1-2.9l-6-16.3h-46.8l-6,16.3
		c-0.4,0.9-1.1,1.9-2,2.9c-1,1-2.6,1.6-4.9,1.6H869.4z M921.2,1139.1h28.9l-14.5-43.7L921.2,1139.1z"/>
</g>
</svg>
