<?xml version="1.0" encoding="utf-8"?>
<!-- Generator: Adobe Illustrator 18.1.1, SVG Export Plug-In . SVG Version: 6.00 Build 0)  -->
<svg version="1.1" id="Layer_1" xmlns="http://www.w3.org/2000/svg" xmlns:xlink="http://www.w3.org/1999/xlink" x="0px" y="0px"
	 viewBox="0 350 612 92" enable-background="new 0 350 612 92" xml:space="preserve">
<g>
	<path d="M50.6,413.6H26.2l-3.3,8c-1.3,3.2-2,5.4-2,6.9c0,2.1,2,3.1,5.8,3.1H31v3.8H6v-3.8h2.3c3,0,4.9-0.5,6-1.5s2.3-3.4,3.8-7
		l27.2-66.7h3.4l28.5,75.2h8v3.8H47.1v-3.8h10.4L50.6,413.6z M27.8,409.7h21.2l-10.2-26.9L27.8,409.7z"/>
	<path d="M118.9,361.5v32.8h2.5c8.1,0,12.7-4.5,14-13.7h3.8v31.7h-3.8c-0.7-9.5-5.3-14.2-14-14.2h-2.5v33.5h13.2
		c11.6,0,19.3-7.2,22.9-21.7h3.9l-1.6,25.6H90.1v-3.8h9.9v-70.1h-9.9v-3.8h65l1.1,21.6h-3.8c-2.5-7.3-5.4-12.1-9.1-14.4
		s-8.4-3.5-14.3-3.5C129,361.5,118.9,361.5,118.9,361.5z"/>
	<path d="M166.5,357.8h64.2l0.5,25.4h-3.6c-2.9-14.4-8.8-21.6-17.8-21.6h-1.8v70.1h11.7v3.8h-42.3v-3.8h11.6v-70.1h-1.8
		c-9,0-14.9,7.2-17.8,21.6H166L166.5,357.8z"/>
	<path d="M291.7,397.3h-25.6v34.3h9.9v3.8h-38.6v-3.8h9.9v-70.1h-9.9v-3.8H276v3.8h-9.9v31.8h25.6v-31.8H282v-3.8h38.5v3.8h-9.9
		v70.1h9.9v3.8H282v-3.8h9.7V397.3z"/>
	<path d="M355.8,361.5v32.8h2.5c8.1,0,12.7-4.5,14-13.7h3.8v31.7h-3.8c-0.7-9.5-5.3-14.2-14-14.2h-2.5v33.5h13.2
		c11.6,0,19.3-7.2,22.9-21.7h3.9l-1.6,25.6H327v-3.8h9.9v-70.1H327v-3.8h65l1.1,21.6h-3.8c-2.5-7.3-5.4-12.1-9.1-14.4
		c-3.7-2.3-8.4-3.5-14.3-3.5C365.9,361.5,355.8,361.5,355.8,361.5z"/>
	<path d="M431.2,395.8v35.8h10.2v3.8h-38.9v-3.8h9.9v-70.1h-9.9v-3.8h38.9c12.4,0,20.9,1.9,25.5,5.7c4.5,3.8,6.8,7.9,6.8,12.2
		c0,4.6-2.1,8.6-6.2,11.8c-4.1,3.3-10.4,5.4-18.8,6.5v0.2c6.3,1.6,11,3.7,14.1,6.2c3.1,2.6,5,5.4,5.8,8.6c0.8,3.2,1.2,6.9,1.3,11.3
		c0.1,4.3,0.4,7.1,1.1,8.1c0.7,1.1,1.9,1.6,3.8,1.6c2,0,4.1-0.6,6.5-1.9v4.4c-3.8,2-8,3-12.5,3c-6,0-10.9-1.5-14.4-4.5
		c-3.7-3-5.5-8.5-5.8-16.4c-0.3-7.9-1.3-13-3.1-15.4c-1.8-2.4-5.1-3.6-10-3.6L431.2,395.8L431.2,395.8z M431.2,361.5V392h7.3
		c5.1,0,8.6-0.9,10.6-2.8c2-1.9,3-6.1,3-12.8c0-6.4-0.9-10.5-2.8-12.2c-1.9-1.8-5-2.6-9.7-2.6L431.2,361.5L431.2,361.5z"/>
	<path d="M514.7,361.5v70.1h10.5v3.8h-39.7v-3.8h10.2v-70.1h-10.2v-3.8h39.7v3.8H514.7z"/>
	<path d="M572.5,357.8l27.9,73.7h8v3.8h-38.2v-3.8h10.4l-6.7-18h-24.4l-3.3,8c-1.3,3.2-2,5.4-2,6.9c0,2.1,2,3.1,5.8,3.1h4.2v3.8h-25
		v-3.8h2.3c3,0,4.9-0.5,6-1.5s2.3-3.4,3.8-7l26.7-65.2 M551.1,409.7h21.2l-10.3-26.8L551.1,409.7z"/>
</g>
</svg>
