<?xml version="1.0" encoding="utf-8"?>
<!-- Generator: Adobe Illustrator 18.1.1, SVG Export Plug-In . SVG Version: 6.00 Build 0)  -->
<svg version="1.1" id="Layer_1" xmlns="http://www.w3.org/2000/svg" xmlns:xlink="http://www.w3.org/1999/xlink" x="0px" y="0px"
	 viewBox="0 448.1 595.3 160.9" enable-background="new 0 448.1 595.3 160.9" xml:space="preserve">
<g>
	<path d="M23,510.8c0.1,30.8,0.3,61.6,0.4,92.6c-6,0-11.7,0-17.6,0c0-46.7,0-93.4,0-140.2c0.4,0,0.8-0.1,1.3-0.1
		c5.4,0,10.9,0,16.3,0c1,0,1.5,0.2,1.7,1.3c5.5,21.5,11.1,43,16.6,64.5c1,4,1.9,8,2.8,12c0.1,0.4,0.2,0.8,0.3,1c0-26,0-52.3,0-78.6
		c5.5,0,11,0,16.7,0c0,46.7,0,93.4,0,140.4c-0.7,0-1.5,0-2.3,0c-3.1,0-6.2-0.1-9.3,0c-1.2,0-1.6-0.4-1.9-1.5
		c-4.9-17.5-9.8-35-14.7-52.5c-3.5-12.8-6.9-25.6-10.3-38.5C23.1,511,23,510.9,23,510.8z"/>
	<path d="M342.2,603.5c-2.4,0-4.8,0-7.2,0c-1.1,0-2.3-0.1-3.4,0c-1.6,0.2-2.3-0.4-2.7-2c-5.4-21-11-42-16.5-63
		c-2.3-8.9-4.4-17.9-6.7-26.8c-0.1-0.3-0.2-0.5-0.2-0.7c0.2,30.7,0.4,61.5,0.6,92.3c-5.6,0-10.9,0-16.4,0c0-46.8,0-93.5,0-140.3
		c0.5,0,0.9-0.1,1.3-0.1c4.8,0,9.6,0,14.4,0c1,0,1.5,0.3,1.8,1.4c5.4,22.3,10.9,44.5,16.3,66.8c0.8,3.4,1.5,6.9,2.2,10.3
		c0.1,0.4,0.2,0.7,0.3,0.9c0-26.3,0-52.7,0-79.3c5.2,0,10.5,0,16,0C342.2,509.9,342.2,556.6,342.2,603.5z"/>
	<path d="M185.2,603.2c0-46.6,0-93.3,0-140c0.3-0.1,0.5-0.1,0.8-0.1c8.5,0,17.1-0.2,25.6,0.1c12,0.4,19.5,6.8,21.9,18.5
		c0.9,4.4,1.4,9,1.4,13.6c0.1,25.8,0.1,51.6,0,77.4c0,5.6-0.6,11.2-2.7,16.5c-3.4,8.7-10.1,13.4-19,14
		C204,603.7,194.6,603.2,185.2,603.2z M202.8,480.7c0,35.1,0,70,0,105c2.1,0,4.1,0.1,6.2,0c4.2-0.2,6.7-2.1,7.6-6.2
		c0.6-2.7,0.9-5.6,0.9-8.4c0.1-12.6,0.1-25.1,0-37.7c0-12.9,0-25.7-0.1-38.6c0-2.9-0.5-5.9-1.2-8.7c-0.8-3.3-3.2-5.2-6.7-5.4
		C207.4,480.6,205.1,480.7,202.8,480.7z"/>
	<path d="M163,603.4c-3.4-19.2-6.8-38.5-10.3-57.8c-2.3,0-4.4,0-6.7,0c0,19.2,0,38.5,0,57.8c-5.9,0-11.7,0-17.5,0
		c0-46.7,0-93.4,0-140.2c0.3-0.1,0.5-0.1,0.7-0.1c8.4,0,16.8-0.2,25.2,0.1c11.1,0.3,18.9,6.8,21.6,18c1,4.1,1.5,8.3,1.7,12.5
		c0.2,7.9,0.1,15.9-0.2,23.8c-0.2,5.9-1.6,11.7-4.9,16.7c-0.7,1.1-1.5,2.3-2.5,3.2c-1,1-1.2,1.9-1,3.2c1.5,7.7,3,15.4,4.4,23.1
		c2.5,13.1,5,26.2,7.5,39.3c0,0.1,0,0.2,0,0.4C174.9,603.4,169,603.4,163,603.4z M145.9,527.8c2.1,0,4,0.1,6,0
		c3.1-0.2,5.3-1.9,6.5-4.6c0.8-2,1.5-4.2,1.6-6.3c0.3-7.7,0.3-15.5,0.2-23.2c0-2.5-0.6-5.2-1.4-7.6c-0.9-2.8-2.9-4.9-6-5.2
		c-2.3-0.2-4.6,0-6.9,0C145.9,496.4,145.9,512,145.9,527.8z"/>
	<path d="M421.7,603.5c-6,0-11.9,0-17.9,0c-1.7-9.6-3.4-19.3-5.1-28.9c-1.7-9.6-3.4-19.3-5.2-29c-2.3,0-4.5,0-6.8,0
		c0,19.3,0,38.5,0,57.8c-5.9,0-11.6,0-17.5,0c0-46.7,0-93.4,0-140.2c0.5,0,0.9-0.1,1.2-0.1c8.3,0,16.7-0.2,25,0.1
		c10.2,0.4,17.5,6.2,20.6,16c1.5,4.9,2.2,9.9,2.3,14.9c0,7.7,0,15.4-0.2,23.1c-0.2,5.9-1.5,11.6-4.7,16.7c-0.8,1.3-1.7,2.5-2.8,3.6
		c-1,0.9-1.2,1.8-1,3.1c2.1,11,4.2,21.9,6.3,32.9C417.9,583.3,419.7,593.3,421.7,603.5z M386.7,480.7c0,15.7,0,31.3,0,47.1
		c2,0,3.9,0.1,5.8,0c3.3-0.2,5.6-2,6.8-5c0.7-1.8,1.3-3.8,1.4-5.7c0.2-8,0.3-16,0.2-24c0-2.3-0.5-4.6-1.2-6.8
		c-0.9-3-2.9-5.2-6.2-5.6C391.4,480.5,389.1,480.7,386.7,480.7z"/>
	<path d="M120.4,533.1c0,14,0,28.1,0,42.1c0,4.7-0.4,9.4-2.1,13.9c-3.8,10.1-11.2,15.6-22,15.8c-3,0.1-6.1-0.2-9-1
		c-9.7-2.4-14.7-9.2-16.7-18.6c-0.7-3.3-1-6.8-1.1-10.2c-0.1-27.4-0.1-54.8,0-82.1c0-3.9,0.2-7.8,0.9-11.5
		c2.6-13.2,11.9-20.3,25.3-19.9c6.9,0.2,13.2,2.2,17.9,7.6c3.7,4.2,5.7,9.2,6.2,14.7c0.5,5.9,0.5,11.8,0.5,17.6
		C120.5,512,120.4,522.6,120.4,533.1C120.4,533.1,120.4,533.1,120.4,533.1z M102.7,533.5C102.7,533.5,102.7,533.5,102.7,533.5
		c0-14.2,0-28.3-0.1-42.5c0-2.5-0.5-5.1-1.2-7.5c-0.9-2.9-3.2-4.4-6.3-4.4c-3.2,0-5.6,1.3-6.6,4.3c-0.7,2.1-1.2,4.4-1.2,6.6
		c-0.1,28.9-0.1,57.8,0,86.6c0,1.9,0.3,3.8,0.9,5.6c1,3.4,3.7,5.2,7.2,5c3.3-0.2,5.9-2.2,6.6-5.7c0.4-2.2,0.7-4.6,0.7-6.9
		C102.7,561.1,102.7,547.3,102.7,533.5z"/>
	<path d="M527.3,463.1c-1.5,4.2-2.9,8.1-4.3,12.1c-5.3,15.2-10.7,30.3-16,45.5c-0.3,0.7-0.3,1.7-0.1,2.4c5.8,20.7,11.6,41.3,17.4,62
		c1.6,5.8,3.3,11.5,4.9,17.2c0.1,0.4,0.2,0.7,0.3,1.3c-3.4,0-6.6,0-9.8,0c-2.2,0-4.4-0.1-6.6,0c-1.1,0-1.6-0.3-1.9-1.4
		c-2.7-10.3-5.4-20.7-8.2-31c-2.1-7.7-4.1-15.4-6.2-23.1c-0.1-0.4-0.2-0.7-0.5-1.5c-1.5,4.3-2.8,8.4-4.3,12.3
		c-1.1,2.9-1.4,5.7-1.4,8.8c0.1,11.4,0,22.8,0,34.1c0,0.5,0,1.1,0,1.7c-5.9,0-11.6,0-17.4,0c0-46.8,0-93.5,0-140.3
		c5.8,0,11.5,0,17.3,0c0,19,0,38,0,56.9c0.1,0,0.2,0.1,0.3,0.1c0.2-0.5,0.4-1,0.5-1.5c5.6-17.9,11.2-35.8,16.8-53.7
		c0.5-1.5,1.1-2,2.6-1.9c5,0.1,9.9,0,14.9,0C526.2,463,526.6,463.1,527.3,463.1z"/>
	<path d="M549.5,463c1.2,0,2.1,0,3.1,0c6.2,0,12.4,0,18.5,0c1.1,0,1.5,0.3,1.6,1.5c1.5,10.7,3,21.5,4.5,32.2
		c1.8,13.2,3.7,26.4,5.5,39.6c2.1,15.6,4.3,31.3,6.4,46.9c0.9,6.7,1.8,13.4,2.7,20.2c-5.9,0-11.7,0-17.7,0c-0.3-2-0.5-4-0.8-6
		c-0.9-7.7-1.8-15.3-2.7-23c-0.1-0.4-0.6-1.1-0.9-1.1c-5.9-0.1-11.9-0.1-18-0.1c-1.1,10.1-2.3,20.2-3.4,30.3c-5.9,0-11.6,0-17.7,0
		C537,556.6,543.2,509.9,549.5,463z M561.2,488c-0.1,0-0.1,0-0.2,0c-2.4,22.4-4.8,44.8-7.2,67.2c5,0,9.8,0,14.8,0
		C566.1,532.7,563.6,510.4,561.2,488z"/>
	<path d="M425.9,603.4c0-46.9,0-93.5,0-140.4c2.4,0,4.7,0,7,0c2.2,0,4.3,0,6.5,0c1,0,1.5-0.3,1.9-1.2c1.4-2.9,2.8-5.8,4.3-8.7
		c0.2-0.4,0.7-1,1-1c4.2-0.1,8.5,0,13.1,0c-3.3,3.7-6.4,7.1-9.8,10.8c5.9,0,11.4,0,17,0c0,6,0,11.9,0,17.9c-7.8,0-15.6,0-23.5,0
		c0,14.4,0,28.6,0,43c6.3,0,12.5,0,18.8,0c0,6,0,11.8,0,17.9c-6.2,0-12.5,0-18.8,0c0,14.8,0,29.3,0,44c8.1,0,16.1,0,24.2,0
		c0,5.9,0,11.8,0,17.7C453.7,603.4,439.9,603.4,425.9,603.4z"/>
	<path d="M242.8,463.1c13.6,0,27.2,0,40.8,0c0,5.9,0,11.7,0,17.8c-7.8,0-15.6,0-23.4,0c0,14.4,0,28.6,0,42.9c6.2,0,12.4,0,18.7,0
		c0,6.1,0,11.9,0,17.9c-6.2,0-12.4,0-18.7,0c0,14.7,0,29.3,0,44c8.1,0,16.1,0,24.2,0c0,6,0,11.7,0,17.6c-13.8,0-27.7,0-41.6,0
		C242.8,556.7,242.8,509.9,242.8,463.1z"/>
</g>
</svg>
